<svg width="40" height="40" xmlns="http://www.w3.org/2000/svg" xmlns:xlink="http://www.w3.org/1999/xlink" xml:space="preserve" overflow="hidden"><defs><clipPath id="clip0"><rect x="0" y="0" width="40" height="40"/></clipPath></defs><g clip-path="url(#clip0)"><path d="M20 0C8.9543 0-3.55271e-15 8.95431 0 20 0 31.0457 8.9543 40 20 40 31.0457 40 40 31.0457 40 20 40 8.9543 31.0457-2.98023e-07 20-2.98023e-07ZM20 7.737C23.9212 7.737 27.1 10.9158 27.1 14.837 27.1 18.7582 23.9212 21.937 20 21.937 16.0788 21.937 12.9 18.7582 12.9 14.837 12.9 10.9158 16.0788 7.737 20 7.737ZM20 35.479C15.4434 35.4771 11.1199 33.4645 8.185 29.979 9.7324 27.0213 12.791 25.1644 16.129 25.156 16.3233 25.1573 16.5164 25.1873 16.702 25.245 17.7659 25.6026 18.8796 25.7903 20.002 25.801 21.1244 25.7909 22.2382 25.6033 23.302 25.245 23.4876 25.1873 23.6807 25.1573 23.875 25.156 27.213 25.1644 30.2716 27.0213 31.819 29.979 28.8839 33.4671 24.5586 35.4813 20 35.483Z"/></g></svg>