<svg width="30" height="38" xmlns="http://www.w3.org/2000/svg" xmlns:xlink="http://www.w3.org/1999/xlink" xml:space="preserve" overflow="hidden"><defs><clipPath id="clip0"><rect x="0" y="0" width="30" height="38"/></clipPath></defs><g clip-path="url(#clip0)"><path d="M0 37.913 0 17.044 3.913 17.044 3.913 10.522C3.91245 4.75946 8.58346 0.0875525 14.346 0.0870004 14.3467 0.0870004 14.3473 0.0870004 14.348 0.0870004L15.648 0.0869999C21.4111 0.0847907 26.0848 4.75491 26.087 10.518 26.087 10.5193 26.087 10.5207 26.087 10.522L26.087 17.044 30 17.044 30 37.914 0 37.914ZM14.014 27.201 13.044 34.001 16.957 34.001 15.985 27.201C17.3186 26.6567 17.9584 25.1344 17.4141 23.8009 16.8699 22.4673 15.3476 21.8275 14.014 22.3717 12.6804 22.916 12.0406 24.4383 12.5849 25.7719 12.8498 26.421 13.3649 26.9361 14.014 27.201ZM22.173 11.174C22.173 7.21191 18.9611 4 14.999 4 11.0369 4 7.825 7.21191 7.825 11.174L7.825 17.044 22.173 17.044Z"/></g></svg>