<svg width="30" height="30" xmlns="http://www.w3.org/2000/svg" xmlns:xlink="http://www.w3.org/1999/xlink" xml:space="preserve" overflow="hidden"><defs><clipPath id="clip0"><rect x="0" y="0" width="30" height="30"/></clipPath></defs><g clip-path="url(#clip0)"><path d="M28.602 22.179C28.0412 21.7671 27.3743 21.5243 26.68 21.479 26.0186 21.4313 25.3943 21.1552 24.914 20.698 23.969 19.9645 23.7976 18.6038 24.5312 17.6588 24.6423 17.5157 24.7709 17.3871 24.914 17.276L27.281 15.176C30.4994 12.4765 30.9201 7.67905 28.2206 4.46061 27.9354 4.12059 27.621 3.80619 27.281 3.521 24.4918 1.17593 20.9452-0.0751042 17.302 0.000999451 12.7333 0.0151744 8.32469 1.68498 4.893 4.701-0.899088 9.55816-1.65699 18.1911 3.20017 23.9832 3.71392 24.5958 4.28036 25.1623 4.893 25.676 8.22975 28.4983 12.4668 30.0326 16.837 30.001L16.97 30.001C21.2125 30.0819 25.3411 28.6256 28.594 25.901 29.6212 24.8742 29.6248 23.2102 28.602 22.179ZM4.377 11.875C4.377 10.4943 5.49629 9.375 6.877 9.375 8.25771 9.375 9.377 10.4943 9.377 11.875 9.377 13.2557 8.25771 14.375 6.877 14.375 5.49629 14.375 4.377 13.2557 4.377 11.875ZM7.502 21.718C6.12129 21.718 5.002 20.5987 5.002 19.218 5.002 17.8373 6.12129 16.718 7.502 16.718 8.88271 16.718 10.002 17.8373 10.002 19.218 10.002 20.5987 8.88271 21.718 7.502 21.718ZM12.502 9.141C11.1213 9.141 10.002 8.02171 10.002 6.641 10.002 5.26029 11.1213 4.141 12.502 4.141 13.8827 4.141 15.002 5.26029 15.002 6.641 15.002 8.02171 13.8827 9.141 12.502 9.141ZM18.127 26.249C16.0559 26.2495 14.3766 24.5711 14.376 22.5 14.3754 20.4289 16.0539 18.7495 18.125 18.749 20.1961 18.7484 21.8755 20.4269 21.876 22.498 21.876 22.499 21.876 22.5 21.876 22.501 21.8743 24.5711 20.1961 26.2484 18.126 26.249ZM20.002 10.001C18.6213 10.001 17.502 8.88171 17.502 7.501 17.502 6.12029 18.6213 5.001 20.002 5.001 21.3827 5.001 22.502 6.12029 22.502 7.501 22.502 8.88171 21.3827 10.001 20.002 10.001Z"/></g></svg>