<svg width="41" height="36" xmlns="http://www.w3.org/2000/svg" xmlns:xlink="http://www.w3.org/1999/xlink" xml:space="preserve" overflow="hidden"><defs><clipPath id="clip0"><rect x="0" y="0" width="41" height="36"/></clipPath></defs><g clip-path="url(#clip0)"><path d="M28.5596 5.84414 34.9028 12.1874C35.1701 12.4555 35.1701 12.8894 34.9028 13.1576L19.5438 28.5175 13.0175 29.2417C12.2666 29.3259 11.5895 28.7855 11.5052 28.0345 11.4939 27.9331 11.4939 27.8308 11.5052 27.7294L12.2294 21.2031 27.5884 5.84414C27.8567 5.57617 28.2913 5.57617 28.5596 5.84414ZM39.9538 4.23382 36.5201 0.802156C35.4469-0.266613 33.7116-0.266613 32.6384 0.802156L30.1519 3.29364C29.8846 3.5618 29.8846 3.99567 30.1519 4.26383L36.4951 10.6071C36.7633 10.8744 37.1971 10.8744 37.4653 10.6071L39.9538 8.11558C41.0226 7.04236 41.0226 5.30704 39.9538 4.23382ZM27.2513 24.3397 27.2513 31.4991 4.74694 31.4991 4.74694 8.99475 20.9081 8.99475C21.1325 8.99366 21.3476 8.90543 21.5082 8.7487L24.3217 5.93615C24.6515 5.6066 24.6517 5.07211 24.3222 4.74233 24.163 4.58305 23.9468 4.49396 23.7216 4.49487L3.62172 4.49487C1.75801 4.49543 0.247166 6.00583 0.246062 7.86953L0.246062 32.6243C0.246614 34.4884 1.75762 35.9994 3.62172 36L28.3765 36C30.2406 35.9994 31.7516 34.4884 31.7522 32.6243L31.7522 21.5272C31.7527 21.0604 31.3748 20.6816 30.908 20.681 30.6843 20.6808 30.4695 20.7692 30.3109 20.9271L27.4984 23.7406C27.3415 23.9008 27.2529 24.1156 27.2513 24.3397Z"/></g></svg>