<svg width="40" height="40" xmlns="http://www.w3.org/2000/svg" xmlns:xlink="http://www.w3.org/1999/xlink" xml:space="preserve" overflow="hidden"><defs><clipPath id="clip0"><rect x="0" y="0" width="40" height="40"/></clipPath></defs><g clip-path="url(#clip0)"><path d="M31.6662 21.667 21.6665 21.667 21.6665 31.6667 31.6662 31.6667ZM28.3333 0.000499725 28.3333 3.33342 11.6667 3.33342 11.6667 0.000499725 6.66683 0.000499725 6.66683 3.33342 4.1669 3.33342C1.86832 3.34001 0.00659084 5.20174 0 7.50031L0 35.8326C0.00658846 38.1308 1.86771 39.9924 4.1659 39.9995L35.8331 39.9995C38.1313 39.9924 39.9924 38.1308 39.999 35.8326L39.999 7.50031C39.9924 5.20174 38.1307 3.34001 35.8321 3.33342L33.3322 3.33342 33.3322 0.000499725ZM35.8331 35.8326 4.1659 35.8326 4.1659 13.7502 35.8331 13.7502Z"/></g></svg>