<svg width="35" height="40" xmlns="http://www.w3.org/2000/svg" xmlns:xlink="http://www.w3.org/1999/xlink" xml:space="preserve" overflow="hidden"><defs><clipPath id="clip0"><rect x="0" y="0" width="35" height="40"/></clipPath></defs><g clip-path="url(#clip0)"><path d="M0 36.25C0.000552003 38.3208 1.67916 39.9994 3.75 40L31.25 40C33.3208 39.9994 34.9994 38.3208 35 36.25L35 15 0 15ZM25 20.938C25.0011 20.4204 25.4204 20.0011 25.938 20L29.063 20C29.5806 20.0011 29.9999 20.4204 30.001 20.938L30.001 24.063C29.9999 24.5802 29.5812 24.9993 29.064 25.001L25.938 25.001C25.4204 24.9999 25.0011 24.5806 25 24.063ZM25 30.938C25.0011 30.4204 25.4204 30.0011 25.938 30L29.063 30C29.5806 30.0011 29.9999 30.4204 30.001 30.938L30.001 34.063C29.9999 34.5802 29.5812 34.9994 29.064 35.001L25.938 35.001C25.4204 34.9999 25.0011 34.5806 25 34.063ZM15 20.938C15.0011 20.4204 15.4204 20.0011 15.938 20L19.063 20C19.5806 20.0011 19.9999 20.4204 20.001 20.938L20.001 24.063C19.9999 24.5802 19.5812 24.9993 19.064 25.001L15.938 25.001C15.4204 24.9999 15.0011 24.5806 15 24.063ZM15 30.938C15.0011 30.4204 15.4204 30.0011 15.938 30L19.063 30C19.5806 30.0011 19.9999 30.4204 20.001 30.938L20.001 34.063C19.9999 34.5802 19.5812 34.9994 19.064 35.001L15.938 35.001C15.4204 34.9999 15.0011 34.5806 15 34.063ZM5 20.938C5.0011 20.4204 5.42041 20.0011 5.938 20L9.063 20C9.58059 20.0011 9.9999 20.4204 10.001 20.938L10.001 24.063C9.99935 24.5802 9.5802 24.9989 9.063 25L5.938 25C5.4208 24.9989 5.00165 24.5802 5 24.063ZM5 30.938C5.0011 30.4204 5.42041 30.0011 5.938 30L9.063 30C9.58059 30.0011 9.9999 30.4204 10.001 30.938L10.001 34.063C9.99935 34.5802 9.5802 34.9989 9.063 35L5.938 35C5.4208 34.9989 5.00165 34.5802 5 34.063ZM31.25 5 27.5 5 27.5 1.25C27.4978 0.560556 26.9394 0.0021957 26.25 4.44089e-16L23.75 0C23.0606 0.0021957 22.5022 0.560556 22.5 1.25L22.5 5 12.5 5 12.5 1.25C12.4978 0.560556 11.9394 0.0021957 11.25 4.44089e-16L8.75 0C8.06056 0.0021957 7.5022 0.560556 7.5 1.25L7.5 5 3.75 5C1.67916 5.00055 0.000552003 6.67916 0 8.75L0 12.5 35 12.5 35 8.75C34.9994 6.67916 33.3208 5.00055 31.25 5Z"/></g></svg>