<svg width="36" height="36" xmlns="http://www.w3.org/2000/svg" xmlns:xlink="http://www.w3.org/1999/xlink" xml:space="preserve" overflow="hidden"><defs><clipPath id="clip0"><rect x="0" y="0" width="36" height="36"/></clipPath></defs><g clip-path="url(#clip0)"><path d="M24.7493 6.75031C24.7493 3.02249 21.7273 0.000499986 17.9995 0.000499986 14.2717 0.000499986 11.2497 3.02249 11.2497 6.75031 11.2497 10.4781 14.2717 13.5001 17.9995 13.5001 21.7273 13.5001 24.7493 10.4781 24.7493 6.75031ZM16.4235 16.95C12.2527 14.4001 5.49985 13.7001 2.09994 13.5001 1.02921 13.4143 0.0916452 14.2127 0.00582992 15.2835 0.00272026 15.3223 0.000776048 15.3612-9.54216e-08 15.4001L0 31.0736C0.0173833 32.1014 0.835724 32.936 1.86295 32.9736 4.93286 33.1346 11.1437 33.7246 15.4356 35.8865 15.9124 36.1413 16.5056 35.9613 16.7604 35.4845 16.8317 35.351 16.8711 35.2028 16.8755 35.0515L16.8755 17.752C16.8774 17.4227 16.7062 17.1167 16.4245 16.946ZM33.8991 13.5001C30.4992 13.6931 23.7423 14.4001 19.5715 16.949 19.2886 17.1243 19.1177 17.4343 19.1205 17.767L19.1205 35.0515C19.1367 35.5936 19.5892 36.0199 20.1313 36.0038 20.2826 35.9992 20.4309 35.9598 20.5644 35.8885 24.8563 33.7286 31.0641 33.1386 34.132 32.9776 35.1618 32.9415 35.9826 32.1049 35.999 31.0746L35.999 15.4081C35.9814 14.3335 35.096 13.4767 34.0214 13.4943 33.9806 13.4949 33.9398 13.4969 33.8991 13.5001Z"/></g></svg>