<svg width="145" height="62" xmlns="http://www.w3.org/2000/svg" xmlns:xlink="http://www.w3.org/1999/xlink" xml:space="preserve" overflow="hidden"><defs><clipPath id="clip0"><rect x="0" y="0" width="145" height="62"/></clipPath></defs><g clip-path="url(#clip0)"><path d="M62.4883 31 62.4883 62 63.7532 62 63.7532 0 62.4883 0Z"/><path d="M20.607 6.32727C11.3955 7.41939 3.77857 14.2987 1.12177 23.9152 0.797291 25.5413 0.610969 27.192 0.56479 28.8495 0.398029 30.8143 0.525861 32.7931 0.94405 34.7201 2.25068 41.2349 6.2119 46.9111 11.8761 50.3849 13.6731 51.4482 17.1142 52.8144 17.3674 52.5612 17.4428 52.4619 16.7856 51.7262 15.9 50.8913 12.8381 48.0826 11.3449 44.565 10.8644 39.0478 10.7164 37.3398 10.6743 35.6242 10.7383 33.911 11.2446 27.6095 12.2821 20.1444 12.7885 19.1069 13.9521 16.7033 17.7993 16.6248 19.4692 18.9808 19.773 19.3859 20.0768 19.7403 20.1781 19.7403 20.2793 19.7403 20.5831 19.3859 20.8611 18.9808 22.1168 17.333 24.3623 16.8028 26.2224 17.715 27.3363 18.3732 27.7911 19.3601 27.9688 21.5612 28.1057 22.7536 28.3513 23.931 28.7025 25.0788L29.2872 26.7487 27.0852 26.7487C24.5989 26.5498 22.1605 27.5119 20.4799 29.3549 17.3416 32.4932 16.8064 37.503 19.1644 41.8307 20.8095 44.8678 24.6815 47.5494 31.0326 50.0047 37.4354 52.5096 50.0879 56.2048 50.0879 55.5972 50.0879 55.5724 48.4686 53.8767 46.4949 51.8771 44.4954 49.8528 42.3955 47.5494 41.7879 46.7651L40.674 45.3225 41.6867 43.9812C44.847 39.587 46.4339 34.2557 46.1911 28.8485 46.0553 25.4572 45.1923 22.1346 43.6604 19.1059 39.5157 10.3393 30.2378 5.19653 20.607 6.32727Z"/><path d="M127.598 6.32626C126.864 6.63007 125.953 7.89494 123.169 12.4758 121.779 14.7792 120.867 16.0192 120.638 15.9428 118.209 15.1078 113.477 18.2958 111.325 22.2691 110.465 23.8377 109.174 25.049 108.339 25.049 107.58 25.049 108.212 22.9482 110.035 19.4564 110.683 18.3016 111.225 17.0904 111.654 15.8375 110.996 15.2051 109.326 16.192 108.566 17.6594 107.681 19.38 102.822 24.5426 102.088 24.5426 101.683 24.5426 102.165 23.252 103.758 20.1643 105.175 17.3556 105.479 16.5961 105.226 16.2923 104.466 15.3808 103.606 16.3171 101.329 20.5435 100.165 22.695 99.5575 23.5806 98.6967 24.2378 97.3812 25.2247 96.5453 25.2505 96.444 24.2627 96.3686 23.5538 98.3423 19.4544 100.391 16.0639L101.607 14.0395 103.631 13.841C104.459 13.8259 105.272 13.6272 106.014 13.2592 106.342 12.9047 106.318 12.8035 105.685 12.2465 105.287 11.798 104.666 11.6204 104.091 11.7908 103.053 11.9675 103.053 11.8901 103.863 10.6768 104.724 9.41197 104.674 9.10817 103.61 9.10817 102.851 9.10817 102.598 9.2849 101.712 10.4743L100.699 11.8156 98.9787 11.9417C97.131 12.0678 96.3467 12.4222 95.8662 13.3585 95.3857 14.2192 95.9417 14.4714 97.7645 14.2947L99.2537 14.1428 98.798 14.8517C97.2614 17.243 95.908 19.7471 94.7492 22.3425 93.9143 24.5953 93.9391 25.4044 94.8485 26.3407 95.7599 27.2521 97.0248 27.3275 98.4416 26.5174L99.4284 25.9604 99.9348 26.5174C100.257 26.833 100.677 27.0294 101.126 27.0744 102.113 27.0744 103.783 25.9822 105.074 24.5436L106.188 23.253 106.061 24.6191C105.961 25.8105 106.035 26.0617 106.541 26.5422 107.301 27.2511 108.389 27.2253 109.704 26.4429L110.796 25.7847 111.327 26.3158C112.34 27.3285 114.314 26.6196 116.689 24.3669 117.549 23.5568 118.156 23.1269 118.03 23.4049 117.862 23.9483 117.751 24.5081 117.701 25.0748 117.626 26.0875 117.701 26.3148 118.182 26.6693 119.121 27.2199 120.293 27.1813 121.193 26.57 121.75 26.292 122.206 26.1649 122.206 26.292 122.206 26.7725 123.268 27.127 124.129 26.9503 125.038 26.6273 125.856 26.0891 126.512 25.3816 126.956 24.9045 127.467 24.4951 128.03 24.1664 128.03 24.774 125.955 27.9391 124.664 29.3291 121.931 32.2648 121.374 34.9216 123.473 34.9216 124.384 34.9216 125.067 34.3647 126.003 32.8466 128.016 30.1803 130.334 27.7598 132.911 25.6348 134.506 24.2934 134.86 23.8635 134.86 23.2818 134.893 22.9766 134.812 22.6702 134.633 22.421 133.53 23.1008 132.511 23.9075 131.596 24.8246 130.678 25.7229 129.688 26.5438 128.635 27.2789 128.509 27.127 130.559 23.3076 132.811 19.5348 133.383 18.6225 133.899 17.6759 134.355 16.7003 134.355 16.4471 133.52 15.9408 133.115 15.9408 132.458 16.5044 131.887 17.1609 131.419 17.8897 129.091 21.0787 125.042 24.9249 124.536 24.4424 124.968 23.1095 125.545 21.8281 126.257 20.621 127.876 17.5085 128.104 16.9475 127.8 16.597 127.117 15.7621 126.662 16.1672 125.144 18.8488 122.967 22.695 122.183 23.8129 121.221 24.492 118.058 26.5928 119.602 22.5183 125.827 12.1929 129.347 6.35208 129.6 5.54193 127.598 6.32626ZM119.475 18.4229C119.197 18.8021 118.108 20.0928 117.045 21.308 113.806 25.0281 112.212 25.8125 113.477 23.0792 114.54 20.7769 117.981 17.718 119.499 17.718 119.933 17.714 119.933 17.7398 119.478 18.4229Z"/><path d="M89.5657 7.33896C86.6557 8.09846 82.8085 10.097 81.4176 11.5903 79.6205 13.5134 79.4687 15.3104 81.0125 16.7529 81.7462 17.436 82.4799 17.715 87.7191 19.2072 89.4396 19.7135 90.3252 20.2447 90.3252 20.7759 90.3252 21.586 87.4401 23.2579 84.8845 23.9142 82.1265 24.6231 78.2545 24.1922 78.3318 23.1805 78.3825 22.6235 77.7749 22.6741 77.1683 23.2798 75.954 24.494 77.0918 26.3675 79.3197 26.8222 82.5978 27.2013 85.9169 26.667 88.9104 25.2784 91.6179 23.937 92.8579 22.5203 92.8579 20.8245 92.8579 18.6989 91.3905 17.5601 86.8603 16.2188 83.8232 15.3332 82.7351 14.802 82.7351 14.2699 82.7351 13.1559 87.3149 10.2718 90.3272 9.48744 92.0984 9.00691 93.0853 8.98109 92.6554 9.411 92.4846 9.5808 92.3774 9.80405 92.3516 10.0434 92.3516 10.4733 95.3122 10.242 96.578 9.7148 97.413 9.38618 97.8935 8.42412 97.5401 7.84233 96.8799 6.75618 92.8092 6.505 89.5657 7.33896Z"/><path d="M15.1156 20.1435C14.2807 20.5733 14.2549 20.7759 14.8625 21.3348 15.5724 21.8852 16.5677 21.8749 17.2661 21.31 17.8479 20.6776 17.8231 20.5763 16.9375 20.1186 16.0519 19.6609 15.9754 19.6619 15.1156 20.1435Z"/><path d="M23.644 19.9915C23.3249 20.1191 23.0393 20.3181 22.8091 20.5733 22.5311 20.902 22.5817 21.0291 23.0622 21.3577 23.8106 21.8889 24.8182 21.8683 25.5443 21.3071 26.0755 20.8772 26.0755 20.8513 25.6197 20.4463 25.1007 19.9323 24.3355 19.7562 23.644 19.9916Z"/><path d="M19.4682 22.9015C19.215 23.2053 19.215 23.4327 19.4682 24.0403 19.8226 24.9259 20.2019 24.9011 20.6596 24.0403 21.1888 22.9522 20.2019 22.0159 19.4682 22.9015Z"/><path d="M91.1353 36.4407C87.9631 37.1273 84.9493 38.4074 82.2525 40.2134 81.0108 41.1444 80.1841 42.5255 79.9502 44.0596 80.0805 45.3067 80.8461 46.3979 81.9745 46.9448 83.2574 47.4324 84.5671 47.8464 85.8972 48.1848 90.5535 49.4497 91.0847 49.9312 89.389 51.348 87.2633 53.0944 82.6576 54.2579 80.1021 53.6761 78.7608 53.3723 78.3309 53.0944 78.305 52.5126 78.2793 52.1075 77.5962 52.3607 77.1137 52.9425 76.0216 54.2073 77.213 56.0043 79.3654 56.3339 82.7063 56.8403 87.8173 55.7263 90.3232 53.9809 92.0944 52.7161 92.8539 51.628 92.8539 50.2082 92.8539 48.1838 91.184 46.9438 86.7302 45.6779 84.0982 44.9442 82.7321 44.2612 82.7321 43.6784 82.7321 42.6657 87.5403 39.6545 90.1971 39.022 92.8291 38.3638 92.6792 38.3638 92.4995 39.1213L92.3218 39.8044 94.2201 39.6525C96.7756 39.4758 97.6622 38.9942 97.6622 37.78 97.6622 37.4007 97.409 37.0711 96.8778 36.7931 95.0127 36.2556 93.0522 36.1352 91.1353 36.4407Z"/><path d="M140.634 39.1491C140.305 39.5542 139.748 40.2412 139.442 40.6672 138.911 41.4515 138.784 41.5021 137.392 41.5021 136.671 41.4792 135.952 41.582 135.266 41.8059 134.507 42.1346 133.748 43.1721 133.976 43.5265 134.536 43.7561 135.145 43.8431 135.747 43.7797L137.366 43.7797 135.822 46.361C132.28 52.3329 131.597 55.1674 133.494 56.1801 134.884 56.9396 136.404 56.4839 138.479 54.662 139.466 53.8012 139.671 53.4478 139.671 52.7389 139.671 52.2584 139.595 51.8781 139.472 51.8781 138.956 52.1717 138.472 52.5195 138.029 52.9156 135.955 54.662 134.613 54.9907 134.613 53.8012 134.613 52.865 138.763 44.8936 139.776 43.8303 140.48 43.5204 141.235 43.3405 142.003 43.2991 144.078 43.0718 144.485 42.9199 144.485 42.4135 144.485 41.7811 143.573 41.2499 142.511 41.2499L141.448 41.2499 142.106 40.2124C142.412 39.8112 142.589 39.3264 142.612 38.8225 142.375 38.2377 141.317 38.4144 140.634 39.1491Z"/><path d="M108.394 45.2749C107.42 45.8366 106.52 46.5166 105.713 47.2992 104.094 48.7885 104.068 48.8173 104.522 47.9068 104.767 47.4419 104.929 46.9381 105.002 46.4176 104.908 45.7058 104.348 45.1458 103.636 45.0515 102.44 45.3676 101.331 45.9534 100.396 46.7641 98.7513 48.1541 98.5994 48.1809 99.5108 46.9627 99.9028 46.4918 100.219 45.9625 100.447 45.394 100.447 44.9135 99.1822 44.9383 98.4981 45.4198 97.2839 46.2548 92.6275 54.9599 92.9304 55.77 93.1577 56.3518 94.1952 56.2764 94.8028 55.5933 95.3094 54.9693 95.7823 54.3188 96.2196 53.6444 97.7516 51.5069 99.5164 49.5463 101.482 47.7986 102.039 47.4194 102.342 47.3429 102.519 47.5206 102.718 47.7192 102.32 48.6594 101.077 50.785 98.1913 55.7194 98.242 55.6439 98.6729 55.9219 99.5843 56.5037 100.14 56.1999 101.785 54.0743 103.708 51.62 108.592 46.8118 108.719 47.2416 108.795 47.4184 108.365 48.1779 107.808 48.9374 106.319 50.937 105.252 53.1638 105.252 54.252 105.252 56.2764 107.635 57.1113 109.832 55.8713L110.819 55.3143 111.401 55.8713C112.592 56.9852 114.361 56.4025 116.715 54.2014L117.652 53.2899 117.652 54.1249C117.618 54.9174 117.932 55.685 118.513 56.2257 119.346 56.5099 120.253 56.4831 121.068 56.1503 121.324 55.9845 121.642 55.9478 121.929 56.051 122.536 56.1771 122.764 56.0004 124.156 54.2292 125.446 52.6677 126.814 51.1726 128.255 49.7495 130.685 47.3667 131.596 46.7631 130.685 48.155 130.44 48.567 130.326 49.0431 130.356 49.5212 130.407 50.0781 130.555 50.23 131.065 50.23 131.521 50.23 131.926 49.9014 132.609 48.8887 133.899 47.0411 134.152 46.2568 133.701 45.5737 132.992 44.561 130.892 45.1686 128.969 46.9398 128.638 47.2619 128.283 47.5579 127.907 47.8254 128.007 47.4111 128.178 47.0174 128.413 46.6618 129.096 45.3712 129.045 45.0425 128.16 45.0425 127.173 45.0425 126.363 45.9788 124.136 49.8002 122.061 53.3426 121.277 54.2798 120.314 54.4565 119.859 54.532 119.808 54.4059 119.859 53.3644 119.884 52.2256 121.2 49.0625 122.364 47.2913 122.945 46.4057 122.692 45.802 121.731 45.802 121.326 45.802 120.896 45.9013 120.82 46.0552 120.721 46.2071 120.364 46.1545 119.858 45.9033 118.441 45.1438 116.012 46.0552 113.603 48.2315 112.427 49.3406 111.511 50.697 110.922 52.2028 110.375 53.33 109.339 54.1423 108.114 54.4049 107.05 54.4049 107.431 53.3128 109.682 49.6731 110.511 48.4479 111.231 47.1522 111.834 45.8011 111.837 44.7159 110.165 44.4627 108.394 45.2749ZM118.415 49.3742C116.989 51.2245 115.28 52.8385 113.352 54.1567 111.302 55.2706 114.213 50.1328 116.591 48.5135 117.705 47.7291 119.426 47.0461 119.73 47.2486 119.428 48.0328 118.982 48.7532 118.414 49.3723Z"/></g></svg>