<svg width="32" height="36" xmlns="http://www.w3.org/2000/svg" xmlns:xlink="http://www.w3.org/1999/xlink" xml:space="preserve" overflow="hidden"><defs><clipPath id="clip0"><rect x="0" y="0" width="32" height="36"/></clipPath></defs><g clip-path="url(#clip0)"><path d="M30.906 11.25 1.094 11.25C0.628328 11.2489 0.2511 10.8717 0.25 10.406L0.25 7.875C0.250552 6.01127 1.76127 4.50055 3.625 4.5L7 4.5 7 0.844C7.0011 0.378328 7.37833 0.00109957 7.844-1.81198e-08L10.657 0C11.1227 0.00109958 11.4999 0.378328 11.501 0.844L11.501 4.5 20.501 4.5 20.501 0.844C20.5021 0.378717 20.8787 0.00164863 21.344-1.81198e-08L24.157 0C24.6227 0.00109958 24.9999 0.378328 25.001 0.844L25.001 4.5 28.376 4.5C30.2393 4.5011 31.7494 6.01166 31.75 7.875L31.75 10.406C31.7489 10.8717 31.3717 11.2489 30.906 11.25ZM1.094 13.5 30.906 13.5C31.3717 13.5011 31.7489 13.8783 31.75 14.344L31.75 32.625C31.7494 34.4887 30.2387 35.9994 28.375 36L3.625 36C1.76127 35.9994 0.250552 34.4887 0.25 32.625L0.25 14.344C0.2511 13.8783 0.628328 13.5011 1.094 13.5ZM22.469 27C22.9347 26.9989 23.3119 26.6217 23.313 26.156L23.313 23.344C23.3119 22.8783 22.9347 22.5011 22.469 22.5L9.531 22.5C9.06533 22.5011 8.6881 22.8783 8.687 23.344L8.687 26.157C8.68865 26.6223 9.06572 26.9989 9.531 27Z"/></g></svg>